<svg width="58" height="58" viewBox="0 0 58 58" fill="none" xmlns="http://www.w3.org/2000/svg">
<path d="M29 58C45.0163 58 58 45.0163 58 29C58 12.9837 45.0163 0 29 0C12.9837 0 0 12.9837 0 29C0 45.0163 12.9837 58 29 58Z" fill="#CAE4C1"/>
<path d="M36.7434 41.6516C36.9858 40.5535 41.9609 35.5474 43.9973 32.3355C47.2298 27.2315 45.8018 18.6372 45.8018 18.6372L39.4862 19.6426L37.8106 35.8052L36.7383 41.6568L36.7434 41.6516Z" fill="#1E1E1E"/>
<path d="M23.6947 14.988C22.3234 14.8591 20.9623 15.3231 19.9312 16.2408C17.3843 18.5144 12.9402 23.3039 13.6208 28.5007C14.6313 36.1824 14.0023 37.2084 16.1882 40.8276C17.4978 42.9929 20.7612 44.2921 22.9266 44.6994C26.52 45.38 35.3824 41.1576 36.7434 40.2192C38.0633 39.3016 46.8999 17.1378 23.6947 14.988Z" fill="white"/>
<path d="M23.8754 42.8429C23.9888 44.2865 23.8651 47.7562 20.5449 50.3597C20.0603 50.7412 20.3593 51.463 20.9935 51.463H33.0987C33.4802 51.463 33.7896 51.1794 33.7896 50.834V42.7965C33.7896 42.4459 33.4802 42.1675 33.0987 42.1675H24.5663C24.1641 42.1675 23.8496 42.4769 23.8806 42.8429H23.8754Z" fill="white"/>
<path d="M36.9864 39.1201H30.0625V44.1829H36.9864V39.1201Z" fill="white"/>
<path d="M27.5816 42.8429C27.6898 44.2865 27.5713 47.7562 24.4212 50.3597C23.9624 50.7412 24.2408 51.463 24.8491 51.463H36.3357C36.6966 51.463 36.9905 51.1794 36.9905 50.834V42.7965C36.9905 42.4459 36.6966 42.1675 36.3357 42.1675H28.2363C27.8548 42.1675 27.5558 42.4769 27.5867 42.8429H27.5816Z" fill="white"/>
<path d="M13.765 29.1759C13.765 29.1759 8.55792 17.0088 15.4766 12.8379C15.4766 12.8379 17.41 19.2875 16.4356 21.7622C16.4356 21.7622 13.0381 24.5977 13.7702 29.1759H13.765Z" fill="#1E1E1E"/>
<path d="M33.7893 30.784C21.4056 29.1755 18.9774 18.5447 18.9774 18.5447C18.735 23.5044 21.7717 26.9019 21.7717 26.9019C21.7717 26.9019 13.5537 24.9582 14.2239 16.931C14.6776 11.5023 18.2143 8.96059 19.7919 8.37286C19.7919 8.37286 29.4895 2.16041 40.0017 9.23899C43.0074 11.2651 45.6058 15.9309 45.8842 19.6377C46.5854 28.8919 41.007 30.8974 41.007 30.8974" fill="#1E1E1E"/>
<path d="M41.4913 33.0921C42.0305 31.1762 41.2589 29.2829 39.768 28.8633C38.2769 28.4436 36.631 29.6565 36.0919 31.5724C35.5526 33.4881 36.3242 35.3814 37.8152 35.8012C39.3062 36.2208 40.952 35.008 41.4913 33.0921Z" fill="white"/>
<path d="M18.0802 30.0159C18.4589 30.0159 18.7659 29.7089 18.7659 29.3302C18.7659 28.9516 18.4589 28.6445 18.0802 28.6445C17.7016 28.6445 17.3945 28.9516 17.3945 29.3302C17.3945 29.7089 17.7016 30.0159 18.0802 30.0159Z" fill="black"/>
<path d="M24.6173 30.0159C24.996 30.0159 25.3029 29.7089 25.3029 29.3302C25.3029 28.9516 24.996 28.6445 24.6173 28.6445C24.2386 28.6445 23.9316 28.9516 23.9316 29.3302C23.9316 29.7089 24.2386 30.0159 24.6173 30.0159Z" fill="black"/>
<path d="M27.365 36.414C28.6777 36.414 29.7418 35.3499 29.7418 34.0373C29.7418 32.7246 28.6777 31.6606 27.365 31.6606C26.0524 31.6606 24.9883 32.7246 24.9883 34.0373C24.9883 35.3499 26.0524 36.414 27.365 36.414Z" fill="#CAE4C1"/>
<path d="M14.9665 36.414C16.2792 36.414 17.3434 35.3499 17.3434 34.0373C17.3434 32.7246 16.2792 31.6606 14.9665 31.6606C13.654 31.6606 12.5898 32.7246 12.5898 34.0373C12.5898 35.3499 13.654 36.414 14.9665 36.414Z" fill="#CAE4C1"/>
<path d="M20.9106 33.996C20.6374 33.996 20.359 33.8929 20.1476 33.7021C19.8176 33.4031 19.7094 32.9649 19.8589 32.4906C19.9878 32.0884 20.2353 31.8925 20.4157 31.8049C20.8642 31.5883 21.3489 31.7585 21.4004 31.7739C21.5809 31.841 21.6737 32.042 21.6066 32.2225C21.5396 32.4029 21.3385 32.4906 21.1632 32.4287C21.0911 32.4029 20.8745 32.3514 20.7199 32.4287C20.6271 32.4751 20.5652 32.5627 20.5188 32.7019C20.4518 32.9133 20.4827 33.0783 20.6065 33.1917C20.725 33.3 20.9158 33.3361 21.0447 33.2794C21.2148 33.202 21.4262 33.2794 21.5035 33.4547C21.5808 33.6299 21.5035 33.8362 21.3282 33.9135C21.1993 33.9702 21.055 34.0011 20.9106 34.0011V33.996Z" fill="black"/>
<path d="M22.9575 44.6936L27.4944 43.2861C27.4944 43.2861 25.4528 45.4205 22.3286 48.5448C22.3286 48.5448 23.767 46.3692 22.9575 44.6936Z" fill="#515F06"/>
</svg>
